<?xml version="1.0" encoding="utf-8"?>
<!-- Generator: Adobe Illustrator 27.3.1, SVG Export Plug-In . SVG Version: 6.00 Build 0)  -->
<svg version="1.1" id="Layer_1" xmlns="http://www.w3.org/2000/svg" xmlns:xlink="http://www.w3.org/1999/xlink" x="0px" y="0px"
	 viewBox="0 0 1447.59 277.7" style="enable-background:new 0 0 1447.59 277.7;" xml:space="preserve">
<style type="text/css">
	.st0{fill:#ED1E79;}
	.st1{fill:#FFFFFF;}
	.st2{fill:#ED1E79;stroke:#FFFFFF;stroke-miterlimit:10;}
	.st3{fill:none;}
	.st4{fill:#FF0000;}
	.st5{fill:#ED1E79;stroke:#ED1E79;stroke-width:7;stroke-miterlimit:10;}
	.st6{fill:#FFFFFF;stroke:#ED1E79;stroke-width:5;stroke-miterlimit:10;}
	.st7{fill:#C11E79;}
	.st8{fill:#FF9999;stroke:#FFFFFF;stroke-miterlimit:10;}
</style>
<g>
	<g>
		<path class="st1" d="M140.33,114.62H41.88v52.11h112.19v36.43H0.5V0.5h148.63v35.88H41.88v43.03h98.44V114.62z"/>
		<path class="st1" d="M183.28,53.3h44l31.21,110.54l31.9-110.54h42.07l-54.03,149.86h-41.38L183.28,53.3z"/>
		<path class="st1" d="M609.88,82.31c-13.29,0-22.41,5.64-27.36,16.91c-2.57,5.96-3.85,13.57-3.85,22.82v81.12h-39.05V53.57h37.81
			v21.86c5.04-7.7,9.81-13.24,14.3-16.64c8.06-6.05,18.29-9.07,30.66-9.07c15.49,0,28.16,4.06,38.01,12.17
			c9.85,8.11,14.78,21.56,14.78,40.35v100.92h-40.15V112c0-7.88-1.06-13.93-3.16-18.15C628.03,86.16,620.7,82.31,609.88,82.31z"/>
		<path class="st1" d="M794.04,175.25v29.29l-18.56,0.69c-18.52,0.64-31.17-2.56-37.95-9.62c-4.4-4.49-6.6-11.41-6.6-20.76V82.58
			h-20.9V54.67h20.9v-41.8h38.77v41.8h24.34v27.91H769.7v79.19c0,6.14,0.78,9.97,2.34,11.48c1.56,1.51,6.32,2.27,14.3,2.27
			c1.19,0,2.45-0.02,3.78-0.07C791.44,175.41,792.75,175.34,794.04,175.25z"/>
	</g>
	<g>
		<g>
			<path class="st1" d="M427.88,49.72c-45.82,0-82.97,37.15-82.97,82.97c0,30.71,37.27,85.7,61.85,118.64
				c10.54,14.12,31.71,14.12,42.25,0c24.58-32.93,61.85-87.93,61.85-118.64C510.85,86.87,473.7,49.72,427.88,49.72z M424.32,176.47
				c1.17,0.09,2.36,0.14,3.56,0.14c19.16,0,35.49-12.33,41.48-29.47h15.01c-6.44,25.23-29.25,43.92-56.49,43.92
				c-32.23,0-58.36-26.13-58.36-58.36c0-32.23,26.13-58.36,58.36-58.36c32.23,0,58.36,26.13,58.36,58.36H386.4v1
				C386.4,155.49,402.59,174.72,424.32,176.47z"/>
			<path class="st1" d="M427.88,88.78c-19.16,0-35.49,12.33-41.48,29.47h82.95C463.37,101.11,447.04,88.78,427.88,88.78z"/>
		</g>
		<ellipse class="st1" cx="427.88" cy="270.85" rx="26.97" ry="6.34"/>
	</g>
	<g>
		<path class="st1" d="M991.83,202.41H834.88v-35.58l104.13-130.4H837.48V0.72h154.07v33.8l-105.5,132.32h105.77V202.41z"/>
		<path class="st1" d="M1127.51,72.14c12.59,15.78,18.88,34.44,18.88,55.96c0,21.89-6.29,40.62-18.88,56.17
			c-12.59,15.56-31.7,23.33-57.33,23.33c-25.64,0-44.75-7.78-57.33-23.33c-12.59-15.55-18.88-34.28-18.88-56.17
			c0-21.53,6.29-40.18,18.88-55.96c12.59-15.78,31.7-23.67,57.33-23.67C1095.82,48.47,1114.92,56.36,1127.51,72.14z M1070.04,81.45
			c-11.4,0-20.18,4.04-26.34,12.11c-6.16,8.07-9.24,19.59-9.24,34.55c0,14.96,3.08,26.5,9.24,34.62
			c6.16,8.12,14.94,12.18,26.34,12.18c11.4,0,20.16-4.06,26.27-12.18c6.11-8.12,9.17-19.66,9.17-34.62
			c0-14.96-3.06-26.48-9.17-34.55C1090.2,85.48,1081.45,81.45,1070.04,81.45z"/>
		<path class="st1" d="M1230.5,82.13c-13.23,0-22.31,5.61-27.23,16.83c-2.55,5.93-3.83,13.5-3.83,22.71v80.73h-38.86V53.53h37.63
			v21.76c5.01-7.66,9.76-13.18,14.23-16.56c8.02-6.02,18.2-9.03,30.51-9.03c15.42,0,28.03,4.04,37.84,12.11
			c9.8,8.07,14.71,21.46,14.71,40.16v100.44h-39.96v-90.72c0-7.85-1.05-13.87-3.15-18.06C1248.56,85.96,1241.26,82.13,1230.5,82.13z
			"/>
		<path class="st1" d="M1445.13,158.62c-1,8.85-5.61,17.84-13.82,26.96c-12.77,14.5-30.65,21.76-53.64,21.76
			c-18.97,0-35.72-6.11-50.22-18.34c-14.5-12.22-21.75-32.11-21.75-59.66c0-25.81,6.54-45.61,19.63-59.39
			c13.09-13.77,30.08-20.66,50.97-20.66c12.4,0,23.58,2.33,33.52,6.98c9.94,4.65,18.15,12,24.63,22.03
			c5.84,8.85,9.63,19.11,11.36,30.79c1,6.84,1.41,16.69,1.23,29.56h-102.08c0.55,14.96,5.25,25.45,14.1,31.47
			c5.38,3.74,11.86,5.61,19.43,5.61c8.02,0,14.55-2.28,19.57-6.84c2.74-2.46,5.15-5.88,7.25-10.26H1445.13z M1406.54,112.92
			c-0.64-10.31-3.76-18.13-9.37-23.47c-5.61-5.34-12.57-8.01-20.86-8.01c-9.03,0-16.03,2.83-21.01,8.48
			c-4.97,5.66-8.09,13.32-9.37,22.99H1406.54z"/>
	</g>
</g>
</svg>
