<?xml version="1.0" encoding="utf-8"?>
<!-- Generator: Adobe Illustrator 27.3.1, SVG Export Plug-In . SVG Version: 6.00 Build 0)  -->
<svg version="1.1" id="Layer_1" xmlns="http://www.w3.org/2000/svg" xmlns:xlink="http://www.w3.org/1999/xlink" x="0px" y="0px"
	 viewBox="0 0 1992.72 323.05" style="enable-background:new 0 0 1992.72 323.05;" xml:space="preserve">
<style type="text/css">
	.st0{fill:#ED1E79;}
	.st1{fill:#FFFFFF;}
	.st2{fill:#ED1E79;stroke:#FFFFFF;stroke-miterlimit:10;}
	.st3{fill:none;}
	.st4{fill:#FF0000;}
	.st5{fill:#ED1E79;stroke:#ED1E79;stroke-width:7;stroke-miterlimit:10;}
	.st6{fill:#FFFFFF;stroke:#ED1E79;stroke-width:5;stroke-miterlimit:10;}
	.st7{fill:#C11E79;}
	.st8{fill:#FF9999;stroke:#FFFFFF;stroke-miterlimit:10;}
</style>
<g>
	<g>
		<g>
			<path class="st1" d="M192.62,194.95H57.01v71.78h154.55v50.19H0V37.75h204.74v49.43H57.01v59.28h135.61V194.95z"/>
			<path class="st1" d="M251.78,110.48h60.61l42.99,152.27l43.94-152.27h57.96l-74.43,206.44h-57.01L251.78,110.48z"/>
			<path class="st1" d="M839.44,150.45c-18.31,0-30.87,7.77-37.69,23.3c-3.54,8.21-5.3,18.69-5.3,31.44v111.74h-53.79V110.86h52.08
				v30.11c6.94-10.61,13.51-18.25,19.7-22.92c11.11-8.33,25.19-12.5,42.24-12.5c21.34,0,38.79,5.59,52.37,16.76
				c13.57,11.17,20.36,29.71,20.36,55.59v139.02h-55.3V191.35c0-10.86-1.45-19.19-4.36-25
				C864.44,155.75,854.34,150.45,839.44,150.45z"/>
			<path class="st1" d="M1093.12,278.48v40.34l-25.57,0.95c-25.51,0.88-42.93-3.53-52.27-13.26c-6.06-6.18-9.09-15.72-9.09-28.6
				V150.82H977.4v-38.45h28.79V54.8h53.41v57.58h33.52v38.45h-33.52v109.09c0,8.46,1.07,13.73,3.22,15.82
				c2.14,2.08,8.71,3.12,19.7,3.12c1.64,0,3.38-0.03,5.21-0.09C1089.55,278.7,1091.35,278.6,1093.12,278.48z"/>
		</g>
		<g>
			<g>
				<path class="st1" d="M588.73,0c-63.12,0-114.3,51.17-114.3,114.3c0,42.3,51.34,118.06,85.2,163.43
					c14.51,19.44,43.68,19.44,58.2,0c33.86-45.37,85.2-121.12,85.2-163.43C703.03,51.17,651.85,0,588.73,0z M583.83,174.6
					c1.62,0.13,3.25,0.2,4.9,0.2c26.39,0,48.89-16.99,57.14-40.6h20.68c-8.87,34.76-40.29,60.5-77.81,60.5
					c-44.4,0-80.4-35.99-80.4-80.39c0-44.4,35.99-80.39,80.4-80.39c44.4,0,80.39,35.99,80.39,80.39H531.59v1.37
					C531.59,145.7,553.9,172.19,583.83,174.6z"/>
				<path class="st1" d="M588.73,53.8c-26.39,0-48.89,16.99-57.14,40.6h114.27C637.62,70.79,615.12,53.8,588.73,53.8z"/>
			</g>
			<ellipse class="st1" cx="588.73" cy="304.62" rx="37.15" ry="8.74"/>
		</g>
	</g>
	<g>
		<path class="st1" d="M1365.59,315.89h-216.2v-49.01l143.44-179.63h-139.86v-49.2h212.24v46.56l-145.32,182.27h145.7V315.89z"/>
		<path class="st1" d="M1552.5,136.44c17.34,21.74,26.01,47.44,26.01,77.09c0,30.16-8.67,55.95-26.01,77.37
			c-17.34,21.43-43.66,32.14-78.98,32.14c-35.32,0-61.64-10.71-78.98-32.14c-17.34-21.42-26.01-47.22-26.01-77.37
			c0-29.66,8.67-55.35,26.01-77.09c17.34-21.74,43.66-32.61,78.98-32.61C1508.83,103.84,1535.16,114.7,1552.5,136.44z
			 M1473.33,149.26c-15.71,0-27.8,5.56-36.29,16.68c-8.48,11.12-12.72,26.98-12.72,47.59c0,20.61,4.24,36.5,12.72,47.69
			c8.48,11.19,20.58,16.78,36.29,16.78s27.77-5.59,36.19-16.78c8.42-11.18,12.63-27.08,12.63-47.69c0-20.61-4.21-36.47-12.63-47.59
			C1501.1,154.82,1489.04,149.26,1473.33,149.26z"/>
		<path class="st1" d="M1694.36,150.2c-18.22,0-30.73,7.73-37.51,23.18c-3.52,8.17-5.28,18.6-5.28,31.29v111.21h-53.53V110.81h51.84
			v29.97c6.91-10.56,13.45-18.16,19.6-22.81c11.05-8.29,25.07-12.44,42.03-12.44c21.24,0,38.61,5.56,52.12,16.68
			c13.51,11.12,20.26,29.56,20.26,55.32v138.35h-55.04V190.92c0-10.81-1.44-19.1-4.33-24.88
			C1719.24,155.48,1709.18,150.2,1694.36,150.2z"/>
		<path class="st1" d="M1990.03,255.57c-1.38,12.19-7.73,24.57-19.04,37.13c-17.6,19.98-42.22,29.97-73.89,29.97
			c-26.14,0-49.2-8.42-69.18-25.26c-19.98-16.84-29.97-44.23-29.97-82.18c0-35.56,9.01-62.83,27.05-81.81
			c18.03-18.97,41.44-28.46,70.21-28.46c17.08,0,32.48,3.2,46.18,9.61c13.7,6.41,25.01,16.52,33.93,30.35
			c8.04,12.19,13.26,26.33,15.65,42.41c1.38,9.42,1.95,23,1.69,40.71h-140.62c0.75,20.61,7.23,35.06,19.42,43.35
			c7.41,5.15,16.33,7.73,26.77,7.73c11.05,0,20.04-3.14,26.95-9.42c3.77-3.39,7.1-8.11,9.99-14.14H1990.03z M1936.87,192.61
			c-0.88-14.2-5.18-24.98-12.91-32.33c-7.73-7.35-17.31-11.03-28.74-11.03c-12.44,0-22.09,3.9-28.94,11.69
			c-6.85,7.79-11.15,18.35-12.91,31.67H1936.87z"/>
	</g>
</g>
</svg>
